<?xml version="1.0" encoding="utf-8"?>
<!-- Generator: Adobe Illustrator 19.2.1, SVG Export Plug-In . SVG Version: 6.00 Build 0)  -->
<svg version="1.1" id="Layer_1" xmlns="http://www.w3.org/2000/svg" xmlns:xlink="http://www.w3.org/1999/xlink" x="0px" y="0px"
	 viewBox="0 0 741 309" style="enable-background:new 0 0 741 309;" xml:space="preserve">
<style type="text/css">
	.st0{fill:#FFFFFF;}
</style>
<path class="st0" d="M320.9,169.4c3,0,5.5-1.9,5.5-4.9v-18.7h26.2V168c0,11.7-12.5,24.1-31.7,24.1c-19.5,0-32.6-12.4-32.6-24.1V96.5
	c0-11.7,13.1-24.1,32.6-24.1c19.2,0,31.7,12.4,31.7,24.1v22.2h-26.2V100c0-3-2.5-4.9-5.5-4.9c-3.3,0-5.8,1.9-5.8,4.9v64.6
	C315.1,167.5,317.6,169.4,320.9,169.4"/>
<path class="st0" d="M381.9,189.9h-25.4v-85h24.2l1.3,7.5c3.7-5.3,8.9-9.1,20.6-9.1v20.5c-14,0-20.8,3.3-20.8,11.1L381.9,189.9
	L381.9,189.9z"/>
<path class="st0" d="M435.8,103.2c17,0,30.8,8.4,30.8,21.3v45.6c0,12.8-13.8,21.2-30.8,21.2s-30.8-8.4-30.8-21.2v-45.6
	C404.9,111.6,418.8,103.2,435.8,103.2 M435.8,173.1c3,0,5.5-1.3,5.5-4.2v-43.4c0-2.9-2.5-4.2-5.5-4.2s-5.3,1.3-5.3,4.2v43.4
	C430.4,171.9,432.7,173.1,435.8,173.1"/>
<path class="st0" d="M500.2,191.3c-18.6,0-29.7-8.4-29.7-21.2v-8.8h23.2v7.4c0,2.9,2.3,4.9,6.1,4.9c3.7,0,5.9-1.4,5.9-6.3
	c0-7.6-5.9-9.9-19.3-16.7c-12.5-6.1-15.4-14.6-15.4-23.8c0-17.7,13.4-23.5,29.3-23.5c17.2,0,29,8.4,29,21.3v8.1h-23.1v-6.6
	c0-2.9-1.6-4.6-5.3-4.6c-4,0-5.9,1.7-5.9,5.9c0,6.3,3.7,6.9,13.6,11.8c18.3,8.8,21.2,19.8,21.2,28.8
	C529.6,180.1,521.1,191.3,500.2,191.3"/>
<path class="st0" d="M562.2,191.3c-18.6,0-29.7-8.4-29.7-21.2v-8.8h23.2v7.4c0,2.9,2.3,4.9,6.1,4.9s5.9-1.4,5.9-6.3
	c0-7.6-5.9-9.9-19.3-16.7c-12.5-6.1-15.4-14.6-15.4-23.8c0-17.7,13.4-23.5,29.3-23.5c17.2,0,29,8.4,29,21.3v8.1h-23.1v-6.6
	c0-2.9-1.6-4.6-5.3-4.6c-4,0-5.9,1.7-5.9,5.9c0,6.3,3.8,6.9,13.6,11.8c18.3,8.8,21.2,19.8,21.2,28.8
	C591.6,180.1,583.1,191.3,562.2,191.3"/>
<polygon class="st0" points="595.9,74.6 648.1,74.6 648.1,95 622.4,95 622.4,121.3 641.6,121.3 641.6,142.6 622.4,142.6 
	622.4,189.9 595.9,189.9 "/>
<path class="st0" d="M651.4,74.6h25.5v19.2h-25.5V74.6z M651.4,104.8h25.5v85h-25.5V104.8z"/>
<path class="st0" d="M690.3,168.2v-46.1h-11v-17.3h11V90.1h25.4v14.7h13.1v17.3h-13.1v44.1c0,2.4,2.4,4.2,5.3,4.2h6.6v19.5h-12.1
	C699.4,189.9,690.3,179.2,690.3,168.2"/>
<g>
	<path class="st0" d="M307.8,244.1h-8v-17.6h-2.2v17.6h-8v-36.6h8V222h2.2v-14.5h8V244.1z"/>
	<path class="st0" d="M332,237.9c0,2.1-0.8,3.8-2.5,4.9c-1.7,1.2-3.9,1.7-6.6,1.7s-4.9-0.6-6.6-1.7s-2.6-2.8-2.6-4.9v-23.6
		c0-2.3,0.7-4.1,2-5.2c1.5-1.3,3.9-1.9,7.3-1.9c3.1,0,5.3,0.6,6.8,1.8c1.5,1.2,2.2,3,2.2,5.2L332,237.9L332,237.9z M324.3,238.3v-25
		c0-0.4-0.1-0.7-0.3-0.8c-0.2-0.2-0.6-0.3-1-0.3s-0.8,0.1-1.1,0.3c-0.2,0.2-0.4,0.5-0.4,0.8v25c0,0.3,0.1,0.6,0.4,0.8
		c0.2,0.2,0.6,0.3,1.1,0.3s0.8-0.1,1-0.3C324.1,239,324.3,238.7,324.3,238.3z"/>
	<path class="st0" d="M366,244.1h-7.2v-20.5l-4.2,20.5h-5.5l-4.8-20.5v20.5H338v-36.6h10.4l3.6,19l3.3-19H366V244.1z"/>
	<path class="st0" d="M387.8,244.1h-15.7v-36.6h15.6v4.7h-7.6v9.9h6.9v4.5h-6.9v12.9h7.7V244.1z"/>
	<path class="st0" d="M410.3,212.2h-4.5v31.9h-8v-31.9h-4.5v-4.7h17V212.2z"/>
	<path class="st0" d="M434.5,237.9c0,2.1-0.8,3.8-2.5,4.9c-1.7,1.2-3.9,1.7-6.6,1.7s-4.9-0.6-6.6-1.7s-2.6-2.8-2.6-4.9v-23.6
		c0-2.3,0.7-4.1,2-5.2c1.5-1.3,3.9-1.9,7.3-1.9c3.1,0,5.3,0.6,6.8,1.8c1.5,1.2,2.2,3,2.2,5.2L434.5,237.9L434.5,237.9z M426.7,238.3
		v-25c0-0.4-0.1-0.7-0.3-0.8c-0.2-0.2-0.6-0.3-1-0.3s-0.8,0.1-1.1,0.3c-0.2,0.2-0.4,0.5-0.4,0.8v25c0,0.3,0.1,0.6,0.4,0.8
		c0.2,0.2,0.6,0.3,1.1,0.3s0.8-0.1,1-0.3C426.6,239,426.7,238.7,426.7,238.3z"/>
	<path class="st0" d="M472.4,207.5l-4.7,36.6h-9.5l-2.9-20.2l-2.7,20.2h-8.2l-4.6-36.6h7.3l2,16.9l2.8-16.9h9l2.2,16.9l2.7-16.9
		H472.4z"/>
	<path class="st0" d="M498.4,244.1h-8.3l-5.5-19.5v19.5h-6.7v-36.6h9.1l4.6,16.7v-16.7h6.7v36.6H498.4z"/>
	<path class="st0" d="M536.6,237.2c0,2.4-0.6,4.2-1.9,5.3c-1.5,1.3-3.9,2-7.4,2c-3.3,0-5.7-0.8-7.3-2.4c-1.2-1.2-1.7-2.6-1.7-4.3
		v-8.4h7.3v8.5c0,0.4,0.2,0.7,0.5,0.9s0.7,0.3,1.1,0.3c0.5,0,0.9-0.1,1.1-0.3c0.3-0.2,0.4-0.5,0.4-0.9v-4.4c0-1-0.2-1.8-0.7-2.4
		c-1.2-1.3-2.5-2.6-3.9-4.1c-2.3-2.4-3.6-3.8-3.9-4.2c-1.2-1.6-1.8-3-1.8-4.4v-4.1c0-2.3,0.7-4.1,2-5.2c1.5-1.3,4-1.9,7.3-1.9
		c2.9,0,5.1,0.6,6.5,1.9c1.2,1.1,1.8,2.6,1.8,4.5v6.3h-7.3v-6.8c0-0.4-0.1-0.6-0.4-0.8c-0.2-0.2-0.5-0.3-0.9-0.3s-0.8,0.1-1,0.3
		c-0.2,0.2-0.3,0.5-0.3,0.8v3.4c0,1.2,0.5,2.4,1.6,3.5c1.5,1.5,2.9,2.9,4.1,4.2c1.7,1.7,2.8,3,3.3,3.7c1,1.4,1.5,2.9,1.5,4.5
		L536.6,237.2L536.6,237.2z"/>
	<path class="st0" d="M550.6,244.1h-8v-36.6h8V244.1z"/>
	<path class="st0" d="M576.9,244.1h-8.3l-5.5-19.5v19.5h-6.7v-36.6h9.1l4.6,16.7v-16.7h6.7v36.6H576.9z"/>
	<path class="st0" d="M600.5,238.8c0,1.4-0.7,2.7-2.1,3.8c-1.6,1.3-3.7,1.9-6.2,1.9c-2.7,0-4.9-0.5-6.6-1.6c-1.8-1.2-2.7-2.8-2.7-5
		v-23.6c0-2.3,0.7-4.1,2-5.2c1.5-1.3,4-1.9,7.3-1.9c2.9,0,5.1,0.6,6.5,1.9c1.2,1.1,1.8,2.6,1.8,4.5v6.6h-7.3v-7.3
		c0-0.3-0.1-0.5-0.3-0.7c-0.2-0.1-0.5-0.2-0.9-0.2s-0.7,0.1-0.9,0.2s-0.3,0.4-0.3,0.7v25.5c0,0.3,0.1,0.5,0.4,0.7
		c0.2,0.2,0.5,0.2,0.8,0.2c0.4,0,0.7-0.1,0.9-0.2c0.2-0.2,0.3-0.4,0.3-0.7v-9.1h7.3V238.8z"/>
	<path class="st0" d="M622.2,244.1h-15.7v-36.6h15.6v4.7h-7.6v9.9h6.9v4.5h-6.9v12.9h7.7V244.1z"/>
	<path class="st0" d="M660.1,244.1h-18.3v-4.8l9.1-16.6c0.6-1.2,1-2.2,1.2-3.2s0.3-2.2,0.3-3.6v-1.4c0-0.5-0.1-0.9-0.4-1.1
		c-0.3-0.3-0.7-0.4-1.2-0.4s-0.8,0.1-1.2,0.4s-0.5,0.6-0.5,1.1v6.2h-7.3v-6.3c0-2.3,0.8-4,2.2-5.2c1.5-1.2,3.8-1.8,6.8-1.8
		c3.3,0,5.7,0.8,7.3,2.4c1.3,1.4,2,3.3,2,5.8v2.8c0,0.8-0.1,1.6-0.4,2.6c-0.1,0.3-0.2,0.7-0.4,1.3l-9.1,17.3h9.9L660.1,244.1
		L660.1,244.1z"/>
	<path class="st0" d="M684.6,237.9c0,2.1-0.9,3.8-2.6,4.9c-1.8,1.2-4,1.7-6.7,1.7s-4.9-0.5-6.6-1.6c-1.8-1.2-2.8-2.8-2.8-5v-23.6
		c0-2.3,0.7-4,2.1-5.2c1.6-1.3,4-1.9,7.4-1.9c3.1,0,5.4,0.6,7,1.9c1.6,1.2,2.4,3,2.4,5.2v23.6H684.6z M676.6,238.3v-25
		c0-0.4-0.1-0.7-0.3-0.8c-0.2-0.2-0.6-0.3-1-0.3c-0.5,0-0.8,0.1-1.1,0.3c-0.2,0.2-0.4,0.5-0.4,0.8v25c0,0.3,0.1,0.6,0.4,0.8
		c0.2,0.2,0.6,0.3,1.1,0.3s0.8-0.1,1-0.3C676.5,239,676.6,238.7,676.6,238.3z"/>
	<path class="st0" d="M701.5,244.1h-8v-26.9h-3.1v-5.3c1,0,2-0.5,2.8-1.5c0.9-1,1.3-2,1.3-3h6.9L701.5,244.1L701.5,244.1z"/>
	<path class="st0" d="M729.7,239.4h-4v4.7H718v-4.7h-10.9v-5.1l7.9-26.8h10.8V234h4L729.7,239.4L729.7,239.4z M718,234v-14.5
		l-3.7,14.5H718z"/>
</g>
<path class="st0" d="M238.3,179.3c1.2-1.9,0.2-4.1,0.5-6.4c-2.1,0.4-2.9-0.3-2.2-2.3c-1.8,0.6-2.5-0.6-3.3-1.6
	c-0.5-0.6-0.4-1.2,0.4-1.4c0.8-0.2,1.5,0,1.8,0.8c0.1,0.3,0.6,0.7,0.9,0.7c0.7,0,1.4-0.2,2.2-0.4v-25c-1.2,0.4-2.2,0.9-3.2,1.2
	c-1.2,0.4-3.7-0.5-3.8-1.7c-0.2-1.6-1.1-2-2.5-2.1c-0.3,0-0.7,0-0.9-0.2c-0.4-0.3-0.6-0.8-0.9-1.1c0.4-0.2,0.8-0.7,1.2-0.7
	c2.8,0.3,5.7,0.7,8.5,1.1c0.5,0.1,1,0.2,1.7,0.3v-1.7c0-10.2,0-20.3,0-30.5c0-1-0.4-1.9-0.6-2.9c-0.1-0.3,0-0.6,0.1-0.8
	c0.1-0.6,0.5-1.1,0.5-1.7c0-21.2,0-42.4,0-63.6c0-0.4-0.1-0.8-0.1-0.8c-1.2,0-2.3,0.3-3.2,0c-0.6-0.2-0.1-2.2,0.8-3.3
	c-1.1-0.6-2.2-1.2-3.4-1.7c-0.4-0.2-0.9,0.1-1.3,0.1s-0.7,0.1-1.3,0.1c0.3-0.6,0.5-0.8,0.7-1.2c-2.7-1.3-5.2-2.5-7.8-3.8
	c-0.4,0.5-0.6,0.8-0.9,1.2c-0.6-1.9-0.6-1.9-2.3-2.6c-4-1.7-8-3.4-12.1-5.1c-0.4,1.6-1.5,1.3-2.5,1.2c-1.2-0.1-1.5,0.5-1.3,1.5
	c0.1,0.7,0.3,1.4,0.5,2.1c0.3,1.5,0,1.8-1.4,1.4c-0.6-0.2-1.2-0.1-1.7-0.4c-0.7-0.4-1.6-0.9-2-1.5c-0.7-1-1.1-2.2-1.6-3.3
	s-0.3-1.5,0.9-1.4c0.8,0,1.6,0.1,2.4,0.1c1.6,0,3.1,0,4.7,0c-0.4-0.4-0.9-0.6-1.4-0.8c-21.5-8-43.6-12.8-66.5-14.3
	c-17.2-1.1-34.3-0.2-51.2,2.6c-12.2,2-24.3,4.9-36,8.9c-14,4.5-27.7,10.4-40.5,18.1c-0.8,0.5-1.1,1-1.1,2c0,7.7,0,15.5,0,23.2
	c0,5.4,0,10.7,0,16.1c0,0.5,0.1,1.1,0.1,1.8c0.9-0.2,1.6-0.3,2.4-0.5c1.1-0.3,1.5,0.6,1.7,1.3c0.1,0.3-0.6,0.9-1.1,1.1
	c-0.6,0.3-1.3,0.3-1.7,0.4c-0.1,0.8-0.1,1.7-0.3,1.8C9,84.1,9,85,9,86c0,4.5,0.1,9.1,0,13.6c0,4.5,0.6,8.9,0,13.4
	c-0.1,0.6-0.1,1.2,0,1.8c0.2,1,0.5,1.9,0.7,2.8c0.1,0.4,0,0.9-0.1,1.3c-0.2,0.5-0.6,1-0.6,1.5c0,4.8,0,9.6,0,14.4
	c0,23.1,0.1,46.3,0.1,69.4c0,0.7,0.2,1.6,0.6,2.2c9,13.8,19.8,26.2,31.6,37.7c0.2,0.2,0.5,0.4,1,0.8c0.3-0.8,0.4-1.4,0.6-2
	c0.3-0.7,0.5-1.5,0.9-2.2c0.2-0.3,1.1-0.7,1.1-0.6c0.6,0.7,1.4,1.4,1.5,2.2c0,0.6-0.2,1.2,0.5,1.5c0.2,0.1,0.8-0.5,1-0.8
	c0.5-1.3,1.5-1.5,2.7-1.3c0.7,0.1,0.9,0.5,0.6,1.1s-0.4,1.3-0.8,1.8c-0.4,0.6-0.9,1.2-1.5,1.6s-1.3,0.6-1.6,0.7
	c-0.1,1.1-0.1,1.8-0.2,2.7c0.3,0.3,0.9,0.7,1.2,1c0.8-0.4,1.5-1,2.1-0.8c0.4,0.1,0.8,1.1,0.9,1.7c0.2,1.9,1.2,3.1,2.7,4.3
	c3.9,3.1,7.7,6.4,11.6,9.5c17.2,13.5,35.4,25.4,54.6,35.8c2.9,1.6,5.1,1.6,8,0.1c25.3-13.1,48.4-29.5,69.3-48.8
	c14.8-13.7,28.5-28.5,40.3-44.9c0.5-0.7,0.8-1.7,0.9-2.6c0.1-7.5,0.1-15,0-22.5C238.8,181.3,238.5,180.4,238.3,179.3z M230.5,131.3
	c-0.4-0.1-0.6-0.5-0.9-0.8c0.3-0.3,0.5-0.7,0.8-0.8c0.3,0,0.6,0.4,1.2,0.7C231,130.9,230.7,131.4,230.5,131.3z M230.7,67.5
	c-0.7-0.4-1.2-0.6-1.8-0.9c0.6-0.4,1.2-1.1,1.8-1.1c0.6,0,1.2,0.7,1.8,1.1C232,66.8,231.4,67.1,230.7,67.5z M235.8,136.8
	c-0.6,0.4-1,0.8-1.2,0.7c-0.3-0.1-0.6-0.5-0.8-0.8c0.3-0.2,0.6-0.6,0.8-0.6C234.9,136.1,235.2,136.4,235.8,136.8z M233.8,73.3
	c-0.4-0.1-0.7-0.5-0.9-0.8c-0.1-0.1,0.4-0.7,0.5-0.7c0.4,0.2,0.8,0.5,1.5,0.9C234.3,73.1,233.9,73.4,233.8,73.3z M232.8,55.1
	c0.2-0.1,0.7,0.1,1,0.2c-0.2,0.3-0.3,0.6-0.5,0.8c-1,0.6-2.1,1-3.1,1.6c-0.1-0.2-0.2-0.4-0.3-0.5C230.9,56.4,231.8,55.7,232.8,55.1z
	 M228.6,38.8c0.3,0.5,0.7,0.8,0.6,1c-0.1,0.3-0.4,0.5-0.7,0.8c-0.2-0.2-0.6-0.4-0.6-0.6C228,39.7,228.3,39.4,228.6,38.8z
	 M226.6,61.1c0.9-0.1,1.4,0.4,1.7,1.4c-0.8,0.3-1.6,0.6-2-0.3C226.1,61.9,226.4,61.2,226.6,61.1z M151.4,138.9c0-1,0-2,0.5-2.8
	c4.3-7.1,15.6-7.1,19.9,0.1c0.4,0.6,0.6,2,0.7,2.7L151.4,138.9z M182.8,138.8c1.2-3.3,4.6-6.9,8.6-7.6c5.4-0.9,11.8,3.5,13.3,7.6
	H182.8z M103.1,22.2c0.4,0.4,0.8,0.7,1.3,1.2c-0.5,0.4-0.9,0.9-1.2,0.9c-0.4-0.1-0.9-0.6-0.9-1C102.4,23,102.9,22.6,103.1,22.2z
	 M94.1,18.9c0.4,0.1,0.7,0.6,1.1,1c-0.4,0.5-0.7,0.8-1,1.2c-0.3-0.5-0.8-0.9-1-1.4C93.2,19.5,93.8,18.8,94.1,18.9z M89.7,13.1
	c1,0.6,1.9,1.3,2.7,2.1c0.2,0.2,0,0.8,0,1.3c-0.4-0.1-1.1-0.1-1.2-0.4c-0.5-1.1-1-1.6-1.9-0.4c-0.1,0.2-0.7,0.3-0.8,0.2
	c-0.3-0.5-0.5-1-0.6-1.2C87.8,12.8,88.4,12.4,89.7,13.1z M81.1,18.8c2.1,0.7,4.1,0.1,6.2-0.2c0.4-0.1,1.4,0.6,1.3,0.7
	c-0.3,0.8-0.7,1.7-1.1,2.4c-0.2,0.4-0.7,0.7-1.1,1c0.4,0.2,0.8,0.4,1.2,0.5c0.5,0.2,1.3,0,1.6,0.4c0.5,0.5,0.6,1.2,0.9,1.8
	c-0.5,0.2-1.1,0.3-1.6,0.6c-2.2,1.1-3.5-0.5-5-1.6c-1,1.5-1.3,1.5-2.9,0.1c1-0.2,1.8-0.4,2.5-0.6c0.6-0.2,1.1-0.5,1.7-0.8
	c-0.4-0.4-0.9-0.8-1.3-1.2c-0.6-0.4-1.2-0.9-1.7-1.3c0.1-0.1,0.1-0.2,0.1-0.3c-0.3,0-0.6,0.2-0.8,0c-0.3-0.2-0.6-0.6-0.9-0.9
	C80.5,19.3,80.9,18.8,81.1,18.8z M74.3,24.4c1.1,0.2,2,0.4,1.9,1.5c0,0.4-0.6,0.8-0.9,1.2c-0.6-0.7-1.2-1.3-1.7-2.1
	C73.6,25,74.1,24.6,74.3,24.4z M19.4,52.2c0.8-0.7,1.7-1.6,2.9-0.7c0.1,0.1,0.2,0.1,0.5,0.2c0.2-0.3,0.3-0.7,0.5-1
	c0.3-0.4,0.5-1,0.9-1.2c1.5-1,3.1-1.8,4.6-2.7c0.5-0.3,0.8-0.9,1.3-1.3c0.4-0.3,0.8-0.4,1.2-0.5c0.3-0.1,0.8,0.2,1.1,0
	c4.4-1.9,8.7-3.9,13.1-5.8c0-0.1,0.1-0.2,0.1-0.2c-0.1-0.7-0.7-1.8-0.4-2.2c0.8-0.9,1.9-1.5,2.9-2.1c0.1-0.1,0.7,0.3,0.8,0.5
	c0.7,1.5,0.4,2.2-1.2,2.8c-0.1,0.1-0.3,0.2-0.3,0.6c1.8-0.6,3.6-1.3,5.5-1.9c-0.7-1-1.3-1.8-1.7-2.7c-0.2-0.5-0.3-1.2,0-1.6
	c0.2-0.3,1-0.4,1.5-0.3c0.9,0.2,1.8,0.6,2.7,1c1,0.5,1,1,0.1,1.7c-0.4,0.2-0.6,0.6-1,0.9c0.1,0.1,0.1,0.3,0.2,0.4
	c0.5-0.2,1.1-0.3,1.6-0.6c1-0.5,1.9-1.1,2.9-1.6c0.4-0.2,0.8-0.1,1.3-0.2c1-0.1,2.1-0.2,3.2-0.4c-1.7-1.6-1.9-3.7-2.5-5.6
	c-0.4-1.6,1.1-1.6,1.9-2.1s1.3,0.2,1.6,0.9c0.4,0.9,0.8,1.8,0,2.7c-0.1,0.1-0.1,0.8,0.1,0.9c0.5,0.2,1.2,0.5,1.6,0.3
	c1-0.4,1.8-1,2.7-1.7c1-0.7,1.7-0.7,2.4,0.3c0.9,1.3,2.1,2,3.8,1.2c1.2-0.5,2.6-0.4,3.6-1.5c0.5-0.5,1.8-0.7,2.6-0.5
	c2.1,0.6,4.1-0.1,6.1-0.5c18.5-3.3,37.2-4,55.9-2.2c26.7,2.5,52,10.1,76.1,21.8c0.8,0.4,1.1,0.8,1.1,1.7c0,20.8,0,41.7,0,62.5
	c0,0.9,0.2,8.8,0.2,15.6c-3.3,0.1-6.7-0.1-10.1,0c-0.2-1.6-0.3-2.3-0.4-3.9c-1.3,0.7-2.4,1.2-4,2.1c0,0.3-0.1,0.7-0.3,1.8
	c-8.6,0.2-17.4-0.2-26,0c-0.4-3.8-0.3-2.7-4.5-5.3c-0.4,2.3-0.6,3.1-1,5.3c-9.2,0.2-19.7-0.2-28.8,0c-1-1.9-1-1.8-2.2-4.1
	c-0.7,2.3-0.6,1.9-1.3,4.1c-1,0-3,0.1-4.3,0.1c-0.5-9.5-1.6-16.8-2.7-26.3c-0.3-2.6-1.3-5.1-2.1-7.7c-0.7-2.4-0.3-5-0.8-7.4
	c-0.2-0.9,0.1-1.9-1.3-2.1c-0.8-0.1-0.6-0.9-0.7-1.5c-1-6.8-1.9-13.7-2.9-20.5c-0.2-1.2,0.8-2.4,0.1-3.6c-0.3-0.4-0.4-1-1-1
	s-0.8,0.6-0.9,1c-0.6,1.8,0.1,3.7-0.2,5.6c-0.9,5.9-1.5,11.9-2.3,17.8c-0.1,0.9,0.2,2.2-1.4,2.4c-0.8,0.1-0.7,1.2-0.7,2
	c-0.1,2.2,0,4.3-0.1,6.5c0,1,0.1,2.3-1.4,2.2c-1.4-0.1-1.2-1.4-1.2-2.3c0-0.9-0.1-1.8,0.4-2.7c1.1-2,0.4-4-1-5.3
	c-3.3-2.8-3.1-6.1-2.4-9.7c0.3-1.7,0.3-3.5-0.9-4.7c-2.1-2.2-1.8-4.9-1.6-7.5c0.1-1.5,0.1-2.7-0.4-4.1c-2-5.4-1.3-11-1.9-16.5
	c-0.5,0-1,0-1.5,0c-1.5,1.7-0.3,3.3,0,5.1c0.9,4.2-0.3,8.3-1.6,12.2c-0.3,1-0.4,1.8,0,2.8c1,2.5,0.4,5.1-1.1,7.2
	c-1.3,1.8-1.7,3.5-1.3,5.6c0.7,3.5,0.7,6.8-1.8,9.8c-1.2,1.4-1.6,3.4-0.6,5.4c0.7,1.3,0.6,2.9,0,4.3c-1.2-0.2-0.9-1-0.9-1.6
	c-0.1-2.3,0.1-4.5-0.1-6.8c-0.1-1.1,0.4-2.7-1.7-2.7c-0.5,0-0.6-0.9-0.7-1.5c-1-7.5-2-15-2.9-22.5c-0.1-1,0.1-2,0.3-3
	c0.2-0.8,0-2.1-1.1-2.2c-1.2-0.1-1.4,1.3-1.4,2c0.3,8.4-1.6,16.7-2.3,25c-0.1,0.9-0.1,1.7-1.2,2.1c-1.1,0.4-0.9,1.6-0.8,2.4
	C90.7,90,87.7,94,88,98.5c-2.7,1.8-1.2,4.6-1.6,7c-0.2,1.3-0.7,2.1-2.1,2.3c-2.7,0.2-5.3,0.6-8,0.9c-1.8,0.2-2.2-0.8-2.1-2.3
	c0.4-4.7-0.4-9.3-1.2-13.8c-1.4-7.2-1.5-14.4-2.3-21.6c-0.2-1.6,0-3.3,0-5c0-0.5,0.1-1.1-0.6-1.2c-0.6,0-0.7,0.5-0.7,1.1
	c0,9.1-0.7,18.1-2.3,27c-0.8,4.6-1.2,9.3-0.8,14c0.1,1.8-0.5,2.2-2.3,2.2c-5.6-0.1-11.3,0-16.9-0.1c-1.2,0-2.1,0.2-2.6,1.4
	c-0.3,0.8-1,1.3-1.9,1.4c-2.6,0.5-3.1,0.1-2.9-2.6c0-0.6,0.1-1.1-0.5-1.2c-0.6,0-0.7,0.5-0.6,1.1c0.9,3.6-0.6,6.8-2.2,9.8
	c-1.4,2.8-2.9,5.5-3.5,8.6c-1.1-0.1-0.7-1.1-1.4-1.2c-0.7,0.5-0.1,1.5-0.7,2c-0.1-0.3-0.2-0.5-0.3-0.7c-0.4-0.9,0.6-2.5-1.2-2.5
	c-1.9-0.1-1.3,1.6-1.5,2.6c0,0.2-0.1,0.5-0.1,0.7c-0.1-10.2-0.2-22.1-0.5-24V64.1c-1-0.2-1.9-0.4-2.8-0.6c0.1-0.4,0.1-0.5,0.2-0.5
	c0.7-0.4,1.7-0.7,1.3-1.6c-0.2-0.6-1.1-1-1.7-1.6c-0.3-0.3-0.6-0.6-0.9-1c0.4,0,0.8,0,1.2,0c0.3,0,0.8,0.1,0.9,0
	c0.2-0.2,0.4-0.7,0.3-1c-0.3-0.8,0.1-1.2,0.7-1.8c0.5-0.5,0.6-1.3,0.7-2.1c-1,0.6-1.7,0.9-2.2-0.4c-0.1-0.2-0.7-0.4-1-0.3
	c-0.6,0.2-1.2,0.7-1.8,1c0.3,0.3,0.5,0.6,0.8,0.9c0.3,0.4,0.7,0.8,1,1.2c-0.5,0.3-0.9,0.6-1.4,0.7c-0.5,0.1-1,0.2-1.6,0.1
	c-1.6-0.1-1.6-0.1-1.2-1.6c0.1-0.4-0.1-0.9-0.3-1.2C19.3,53.5,18.6,52.8,19.4,52.2z M221,130.4c0,3.2,0.1,8.1-0.1,8.4h-6.4
	C215.2,136.1,218,131.7,221,130.4z M21.5,70.8c-0.2,0.1-1-0.2-1.2-0.5c-0.2-0.4-0.1-1-0.2-1.5c0.5,0,1-0.1,1.4,0.1
	c1,0.5,1.6,0.2,2-0.7c0.3-0.8,0.6-1.6,1-2.7c1.6,1.7,1.9,3.5,1.8,5.4c0,0.1-1,0.5-1.3,0.3C23.9,70.4,22.8,69.9,21.5,70.8z
	 M21.7,75.5c-0.4,0.6-1.2,0.9-2,1.4c-0.2-0.3-0.5-0.6-0.5-0.8c0.3-0.8,0.6-1.6,1-2.4c0-0.1,0.7,0,0.8,0.1
	C21.4,74.4,21.9,75.2,21.7,75.5z M22.6,61.8c-0.1,0.2-0.5,0.5-0.7,0.4c-0.6-0.2-1.2-0.4-2-0.7c0.9-1,1.7-0.6,2.5-0.3
	C22.6,61.2,22.7,61.6,22.6,61.8z M19.1,63.8c0.3,0.2,0.6,0.5,0.9,0.7c0.4,0.2,0.9,0.4,1.3,0.3c0.7-0.3,1.2-0.2,1.5,0.5
	s-0.2,1-0.8,1.2c-1.6,0.4-3.1,0.8-4.7,1.1c-0.5,0.1-1.2-0.3-1.6-0.6c-0.5-0.4-0.9-0.9-1.4-1.5C15.5,63.9,17.6,63.1,19.1,63.8z
	 M17.5,122.9c-0.2,0-0.4,0.1-0.5,0.1c-0.7-0.9-1.4-1.7-2-2.7c-0.4-0.6,0.1-1.2,0.7-0.9c0.8,0.3,1.7,0.8,2.1,1.5
	C18,121.4,17.6,122.3,17.5,122.9z M13.9,50.1c0.9-0.2,1.9-0.2,3-0.3c-0.8,2.4-2.1,3-3.4,1.6C12.9,50.7,13.1,50.2,13.9,50.1z
	 M11.4,71.7c-0.3-0.4-0.8-0.8-0.9-1.3c-0.1-0.2,0.5-0.9,0.8-0.8c0.4,0,0.7,0.5,1.3,1C12.1,71.1,11.8,71.4,11.4,71.7z M13.2,61
	c-0.7-0.6-1.1-1-1.6-1.5c0.6-0.4,1.1-1,1.8-1.1c0.3,0,0.9,0.8,1.1,1.3C14.6,60,13.9,60.4,13.2,61z M11.6,129.3
	c-0.3-0.5-0.7-0.8-0.6-1.1c0.1-0.3,0.5-0.6,0.7-0.8c0.3,0.3,0.6,0.6,0.7,0.9S12,128.9,11.6,129.3z M12.4,91.5
	c-0.3,0.2-1.1-0.3-1.7-0.5c0.3-0.3,0.4-0.8,0.8-1c0.8-0.4,1.6-0.6,2.5-0.9c0.1,0.1,0.2,0.3,0.3,0.4C13.7,90.2,13.2,91,12.4,91.5z
	 M14.6,135.2c0.1-0.9,1.1-1.3,1.6-0.6c1,1.2,1.9,2.6,2.9,4C16.5,139.4,14.3,137.6,14.6,135.2z M18,179c-0.3,0.4-1,0.4-1.5,0.5
	c-0.1-0.4-0.2-0.9-0.2-1.3c0-0.6,0.2-1.1,0.3-1.7c0.6-2.2,1.6-2.6,4.1-1.4C19.8,176.4,19,177.8,18,179z M21.5,100.1
	c-0.9-1.3-1.8-2.7-2.2-4.1c-0.2-0.8,0.1-2.3,0.8-2.8c0.5-0.4,2.1,0,2.8,0.6c0.9,0.8,1.3,2.2,1.8,3.1c-0.2,1.1-0.3,1.9-0.5,2.7
	c-0.2,0.4-0.6,1.1-0.9,1.1C22.7,100.7,21.8,100.5,21.5,100.1z M23.4,108.2c0.8-0.4,1.5-1,2.4-1.3c0.3-0.1,0.9,0.3,1.3,0.6
	c0.6,0.4,0.7,1,0,1.4c-0.6,0.3-1.2,0.6-2.1,1.1C24.4,109.3,23.9,108.7,23.4,108.2z M43.8,236.2c-1.3-0.1-1.9,0.2-1.3,1.6
	c0.1,0.2-0.4,0.6-0.6,0.9c-0.6-0.2-1-0.3-1.3-0.4c-1.4-0.7-1.4-1.6-0.1-2.3c0.9-0.5,2-0.9,3-1.2c0.3-0.1,0.8,0.4,1.2,0.5
	C44.4,235.6,44.1,236.2,43.8,236.2z M48.6,236.7c-0.5-0.6-0.9-0.9-1.1-1.3c-0.1-0.2,0.6-0.8,0.7-0.8c0.5,0.2,0.9,0.6,1.4,1
	C49.4,235.9,49.1,236.2,48.6,236.7z M55,229.1c0.3-0.2,0.6-0.7,0.9-0.6c0.5,0,0.9,0.4,1.7,0.8c-0.7,0.5-1.2,1-1.4,0.9
	C55.8,230,55.4,229.5,55,229.1z M57.4,248.1c-0.3-0.5-0.6-0.9-0.6-1.1c0.1-0.3,0.5-0.5,0.7-0.8c0.2,0.2,0.6,0.5,0.6,0.7
	C58.1,247.3,57.7,247.6,57.4,248.1z M60,257.6c-0.3,0-0.7-0.4-0.8-0.8c-0.1-0.2,0.3-0.6,0.6-1.1c0.4,0.5,0.9,0.8,0.9,1.1
	C60.8,257.1,60.3,257.6,60,257.6z M60.1,254.2c-0.2,0-0.4-0.4-0.6-0.6c0.3-0.2,0.6-0.6,1-0.7c0.2-0.1,0.5,0.3,1,0.6
	C60.8,253.8,60.5,254.1,60.1,254.2z M61.1,248.2c-0.5-0.5-0.9-1-1.3-1.6c-0.1-0.2,0.1-0.7,0.2-1.2c0.5,0.3,0.8,0.5,0.9,0.7
	c0.4,0.4,0.7,0.9,1,1.4c0.2,0.3,0.1,0.7,0.2,1C61.8,248.4,61.3,248.4,61.1,248.2z M66.5,243.9c-0.3-0.5-0.9-0.9-0.9-1.4
	c0-0.4,0.6-0.8,0.9-1.2c0.4,0.4,0.7,0.7,1.3,1.3C67.3,243.1,66.9,243.5,66.5,243.9z M71.5,263.7c-0.1,0.1-0.5-0.4-0.7-0.5
	c0.4-0.5,0.8-1,1.3-1.4c0.1-0.1,0.6,0.3,1.3,0.7C72.6,263,72.1,263.4,71.5,263.7z M81.4,244.2c-0.3-0.1-0.5-0.4-0.8-0.7
	c0.2-0.2,0.4-0.6,0.6-0.6c0.3,0,0.6,0.3,1.1,0.7C81.9,243.9,81.6,244.2,81.4,244.2z M97.4,235.7c-0.3-0.1-0.7-0.9-0.6-1.2
	c0.5-1,1.4-0.5,2.2-0.3C98.9,235.3,98.4,235.9,97.4,235.7z M106.8,230.4c-0.3-0.1-0.6-0.4-0.8-0.7c-0.1-0.1,0.4-0.7,0.5-0.6
	c0.3,0.1,0.6,0.4,1.2,0.7C107.3,230.2,107,230.5,106.8,230.4z M200.8,219.7h-1.6c-25.2,0-50.4,0-75.6,0c-1.1,0-1.8-0.3-2.4-1.2
	c-3-4.2-6.1-8.3-9.3-12.7h75.3v-8.9h-1.5c-11.3,0-22.7,0-34,0c-0.9,0-1.5-0.3-2.1-1c-2.8-3.9-5.7-7.8-8.6-11.7
	c-0.2-0.3-0.4-0.6-0.8-1.1h60.5v36.6H200.8z M200.8,176.3h-13.3v-8.1h-62v28.7H64v23.6c-1.7-1.3-3.3-2.3-4.8-3.4c-2.8-2-5.6-4-8.3-6
	c-0.4-0.3-0.8-1-0.8-1.4c0-8.6,0-17.1,0-25.7c0-0.2,0.1-0.4,0.1-0.8h61.3v-14.8H63.9v8.1H50.2v-22.1h150.7L200.8,176.3L200.8,176.3z
	 M213.6,143.1c0.2,0.1,0.5,0.1,0.7,0.2c0.3,0.2,0.7,0.6,0.7,0.8c-0.1,0.3-0.4,0.8-0.7,0.9c-2,0.4-4.1,0.7-6.1,0.8
	c-0.7,0-1.4-0.5-2-0.8c-1.3-0.6-2.6-1.2-3.9-1.9c-0.3-0.2-0.8-0.8-0.7-1c0.2-0.4,0.7-0.8,1.1-0.9c0.9-0.1,1.9-0.2,2.7,0
	c0.5,0.1,0.9,0.8,1.3,1.3c0.2,0.4,0.2,1,0.4,1.4c0.3,0.4,0.8,0.6,1.2,0.9c0.1-0.4,0.4-0.8,0.4-1.2c-0.1-1.3,1-2.7,2.5-3
	c1.1-0.2,2.2-0.3,3.3-0.3c0.3,0,0.8,0.1,0.8,0.2c0,0.3,0,0.7-0.2,0.9c-0.5,0.5-1.1,0.8-1.6,1.2C213.4,142.8,213.5,143,213.6,143.1z
	 M216.6,141.1c0,0,0.5-0.6,0.6-0.6c0.6,0.2,1.1,0.6,1.9,1.1c-0.6,0.5-1.1,0.9-1.2,0.9C217.3,142,216.9,141.5,216.6,141.1z M219,149
	c-0.1-0.1-0.2-0.2-0.3-0.3c0.8-0.6,1.5-1.4,2.3-1.8c0.6-0.3,2.4,1,3,2.1L219,149L219,149z M225.5,152.3c-0.2,0.1-0.6-0.4-0.9-0.7
	c0.4-0.3,0.9-0.7,1.4-1c0.5,0.3,0.8,0.5,1.2,0.7C226.6,151.7,226.1,152.1,225.5,152.3z M237.3,168.3c-0.3-0.1-0.6-0.5-0.7-0.8
	c0-0.2,0.5-0.6,0.7-0.6c0.4,0.1,0.6,0.4,1.2,0.8C237.9,168.1,237.5,168.4,237.3,168.3z M229.1,146.5c0.5-0.6,1-1.2,1.5-1.8
	c0.5-0.6,0.9-0.5,1.3,0.2c0.9,1.8,0.2,2.9-2.4,2.9c-0.1,0-0.6-0.1-0.7-0.3C228.6,147.3,228.9,146.8,229.1,146.5z M227.9,161.7
	c-0.1-0.3,0.3-1.1,0.6-1.2c1-0.2,1.4,0.5,1.7,1.5C229.3,162.4,228.4,162.7,227.9,161.7z M230.9,154c0.2-0.2,0.5-0.6,0.6-0.6
	c0.4,0.1,0.7,0.4,1.4,0.8c-0.5,0.4-0.9,0.7-1,0.6C231.5,154.7,231.2,154.3,230.9,154z M232.1,156.8c0.9-0.3,1.9-0.5,2.8-0.7
	c0.1,0.1,0.1,0.2,0.2,0.3c0.2-0.7,0.4-1.4,0.5-2.2c0.1,0,0.2,0,0.4,0c0.1,0.3,0.3,0.6,0.4,1c0.1,0.8,0.1,1.6,0.1,2.4
	c0,2-0.1,4,1.9,5.8c-1.5,0.1-2.6,0.3-3.7,0.3c-0.2,0-0.3-0.4-0.6-0.8c1.7-0.2,2-0.7,1.5-2.3c-0.3-0.9-0.5-1.8-0.8-2.7
	c-0.9,1-2-0.1-3-0.1C232,157.4,231.9,156.8,232.1,156.8z M237.1,190.3c-0.4-0.2-0.7-0.5-1-0.8c0.2-0.2,0.5-0.6,0.7-0.6
	c0.3,0,0.6,0.3,1.1,0.7C237.5,189.9,237.2,190.3,237.1,190.3z"/>
</svg>
